<svg width="1024" height="1024" viewBox="124 125 775 775" fill="none" xmlns="http://www.w3.org/2000/svg">
<g clip-path="url(#clip0_43_424)">
<rect x="124" y="125" width="775" height="775" rx="150" fill="#152653"/>
<path d="M213.233 222.992H483.761V292.016H296.729V389.984H469.566V458.729H296.729V556.977H484.317V626H213.233V222.992Z" fill="#EC712D"/>
<path d="M213.233 222.992V221.992C212.681 221.992 212.233 222.44 212.233 222.992H213.233ZM483.761 222.992H484.761C484.761 222.44 484.313 221.992 483.761 221.992V222.992ZM483.761 292.016V293.016C484.313 293.016 484.761 292.568 484.761 292.016H483.761ZM296.729 292.016V291.016C296.177 291.016 295.729 291.463 295.729 292.016H296.729ZM296.729 389.984H295.729C295.729 390.537 296.177 390.984 296.729 390.984V389.984ZM469.566 389.984H470.566C470.566 389.432 470.119 388.984 469.566 388.984V389.984ZM469.566 458.729V459.729C470.119 459.729 470.566 459.282 470.566 458.729H469.566ZM296.729 458.729V457.729C296.177 457.729 295.729 458.177 295.729 458.729H296.729ZM296.729 556.977H295.729C295.729 557.529 296.177 557.977 296.729 557.977V556.977ZM484.317 556.977H485.317C485.317 556.424 484.87 555.977 484.317 555.977V556.977ZM484.317 626V627C484.87 627 485.317 626.552 485.317 626H484.317ZM213.233 626H212.233C212.233 626.552 212.681 627 213.233 627V626ZM213.233 222.992V223.992H483.761V222.992V221.992H213.233V222.992ZM483.761 222.992H482.761V292.016H483.761H484.761V222.992H483.761ZM483.761 292.016V291.016H296.729V292.016V293.016H483.761V292.016ZM296.729 292.016H295.729V389.984H296.729H297.729V292.016H296.729ZM296.729 389.984V390.984H469.566V389.984V388.984H296.729V389.984ZM469.566 389.984H468.566V458.729H469.566H470.566V389.984H469.566ZM469.566 458.729V457.729H296.729V458.729V459.729H469.566V458.729ZM296.729 458.729H295.729V556.977H296.729H297.729V458.729H296.729ZM296.729 556.977V557.977H484.317V556.977V555.977H296.729V556.977ZM484.317 556.977H483.317V626H484.317H485.317V556.977H484.317ZM484.317 626V625H213.233V626V627H484.317V626ZM213.233 626H214.233V222.992H213.233H212.233V626H213.233Z" fill="black"/>
<path d="M521.233 289.992H604.729V623.977H778.123V693H521.233V289.992Z" fill="white"/>
<path d="M521.233 289.992V288.992C520.681 288.992 520.233 289.44 520.233 289.992H521.233ZM604.729 289.992H605.729C605.729 289.44 605.282 288.992 604.729 288.992V289.992ZM604.729 623.977H603.729C603.729 624.529 604.177 624.977 604.729 624.977V623.977ZM778.123 623.977H779.123C779.123 623.424 778.675 622.977 778.123 622.977V623.977ZM778.123 693V694C778.675 694 779.123 693.552 779.123 693H778.123ZM521.233 693H520.233C520.233 693.552 520.681 694 521.233 694V693ZM521.233 289.992V290.992H604.729V289.992V288.992H521.233V289.992ZM604.729 289.992H603.729V623.977H604.729H605.729V289.992H604.729ZM604.729 623.977V624.977H778.123V623.977V622.977H604.729V623.977ZM778.123 623.977H777.123V693H778.123H779.123V623.977H778.123ZM778.123 693V692H521.233V693V694H778.123V693ZM521.233 693H522.233V289.992H521.233H520.233V693H521.233Z" fill="black"/>
<path d="M874.893 89.541L874.771 89.7695C874.779 89.7564 874.788 89.7437 874.796 89.7295C874.809 89.7047 874.824 89.6753 874.842 89.6416C874.851 89.6247 874.861 89.6068 874.871 89.5869C874.876 89.577 874.881 89.5664 874.887 89.5557C874.889 89.5511 874.89 89.5458 874.893 89.541ZM874.893 89.541L874.899 89.5303C874.898 89.5331 874.896 89.5363 874.895 89.5391L874.893 89.541ZM863.146 74.1816C865.412 73.0529 868.968 72.294 872.669 73.9883L873.027 74.1602L873.525 74.4248C875.944 75.7858 877.33 77.7222 878.068 79.0664C878.861 80.5097 879.246 81.8747 879.446 82.7676C879.658 83.7123 879.752 84.5395 879.798 85.1025C879.822 85.3965 879.835 85.6515 879.842 85.8535C879.845 85.9551 879.847 86.0455 879.849 86.123C879.849 86.1619 879.849 86.1978 879.85 86.2305C879.85 86.2467 879.851 86.2626 879.851 86.2773V86.3135C879.851 86.316 879.85 86.3184 869.851 86.3184H879.851C879.851 87.1842 879.738 88.0469 879.516 88.8838L842.688 227.637H899C902.628 227.637 905.972 229.602 907.737 232.772C909.502 235.943 909.411 239.82 907.5 242.904L783.592 442.854C783.587 442.863 783.584 442.872 783.579 442.88C783.483 443.049 783.352 443.279 783.192 443.548C782.882 444.07 782.422 444.816 781.873 445.604C781.371 446.326 780.569 447.412 779.554 448.424C779.049 448.927 778.245 449.662 777.172 450.325C776.201 450.925 774.162 452 771.389 452C765.237 452 762.389 447.181 761.913 446.362C761.035 444.85 760.579 443.343 760.356 442.529C760.097 441.581 759.93 440.71 759.83 440.128C759.778 439.823 759.739 439.563 759.711 439.368C759.697 439.27 759.686 439.186 759.678 439.12C759.673 439.087 759.67 439.058 759.667 439.033C759.665 439.021 759.663 439.01 759.662 439C759.661 438.995 759.661 438.99 759.66 438.985C759.66 438.983 759.66 438.981 759.66 438.979C759.66 438.978 759.659 438.976 759.659 438.976C759.661 438.974 759.786 438.958 769.588 437.784L759.659 438.973C759.509 437.716 759.598 436.443 759.923 435.22L795.929 299.489L739.093 300.016C735.448 300.049 732.074 298.097 730.286 294.921C728.498 291.745 728.58 287.848 730.499 284.75L857.323 79.999C857.414 79.8375 857.523 79.647 857.65 79.4375C857.958 78.9334 858.475 78.1426 859.19 77.3105C859.811 76.5882 861.121 75.1898 863.146 74.1816Z" fill="#F3722E" stroke="white" stroke-width="20" stroke-linejoin="round"/>
<mask id="path-7-outside-1_43_424" maskUnits="userSpaceOnUse" x="214" y="732" width="236" height="89" fill="black">
<rect fill="white" x="214" y="732" width="236" height="89"/>
<path d="M216.207 734.156H233.785V804.469H270.289V819H216.207V734.156ZM299.293 819H281.715V734.156H299.293V819ZM310.309 734.156H379.801V748.688H353.785V819H336.383V748.688H310.309V734.156ZM390.816 734.156H447.77V748.688H408.395V769.312H444.781V783.785H408.395V804.469H447.887V819H390.816V734.156Z"/>
</mask>
<path d="M216.207 734.156H233.785V804.469H270.289V819H216.207V734.156ZM299.293 819H281.715V734.156H299.293V819ZM310.309 734.156H379.801V748.688H353.785V819H336.383V748.688H310.309V734.156ZM390.816 734.156H447.77V748.688H408.395V769.312H444.781V783.785H408.395V804.469H447.887V819H390.816V734.156Z" fill="#97A5BF"/>
<path d="M216.207 734.156V732.156H214.207V734.156H216.207ZM233.785 734.156H235.785V732.156H233.785V734.156ZM233.785 804.469H231.785V806.469H233.785V804.469ZM270.289 804.469H272.289V802.469H270.289V804.469ZM270.289 819V821H272.289V819H270.289ZM216.207 819H214.207V821H216.207V819ZM216.207 734.156V736.156H233.785V734.156V732.156H216.207V734.156ZM233.785 734.156H231.785V804.469H233.785H235.785V734.156H233.785ZM233.785 804.469V806.469H270.289V804.469V802.469H233.785V804.469ZM270.289 804.469H268.289V819H270.289H272.289V804.469H270.289ZM270.289 819V817H216.207V819V821H270.289V819ZM216.207 819H218.207V734.156H216.207H214.207V819H216.207ZM299.293 819V821H301.293V819H299.293ZM281.715 819H279.715V821H281.715V819ZM281.715 734.156V732.156H279.715V734.156H281.715ZM299.293 734.156H301.293V732.156H299.293V734.156ZM299.293 819V817H281.715V819V821H299.293V819ZM281.715 819H283.715V734.156H281.715H279.715V819H281.715ZM281.715 734.156V736.156H299.293V734.156V732.156H281.715V734.156ZM299.293 734.156H297.293V819H299.293H301.293V734.156H299.293ZM310.309 734.156V732.156H308.309V734.156H310.309ZM379.801 734.156H381.801V732.156H379.801V734.156ZM379.801 748.688V750.688H381.801V748.688H379.801ZM353.785 748.688V746.688H351.785V748.688H353.785ZM353.785 819V821H355.785V819H353.785ZM336.383 819H334.383V821H336.383V819ZM336.383 748.688H338.383V746.688H336.383V748.688ZM310.309 748.688H308.309V750.688H310.309V748.688ZM310.309 734.156V736.156H379.801V734.156V732.156H310.309V734.156ZM379.801 734.156H377.801V748.688H379.801H381.801V734.156H379.801ZM379.801 748.688V746.688H353.785V748.688V750.688H379.801V748.688ZM353.785 748.688H351.785V819H353.785H355.785V748.688H353.785ZM353.785 819V817H336.383V819V821H353.785V819ZM336.383 819H338.383V748.688H336.383H334.383V819H336.383ZM336.383 748.688V746.688H310.309V748.688V750.688H336.383V748.688ZM310.309 748.688H312.309V734.156H310.309H308.309V748.688H310.309ZM390.816 734.156V732.156H388.816V734.156H390.816ZM447.77 734.156H449.77V732.156H447.77V734.156ZM447.77 748.688V750.688H449.77V748.688H447.77ZM408.395 748.688V746.688H406.395V748.688H408.395ZM408.395 769.312H406.395V771.312H408.395V769.312ZM444.781 769.312H446.781V767.312H444.781V769.312ZM444.781 783.785V785.785H446.781V783.785H444.781ZM408.395 783.785V781.785H406.395V783.785H408.395ZM408.395 804.469H406.395V806.469H408.395V804.469ZM447.887 804.469H449.887V802.469H447.887V804.469ZM447.887 819V821H449.887V819H447.887ZM390.816 819H388.816V821H390.816V819ZM390.816 734.156V736.156H447.77V734.156V732.156H390.816V734.156ZM447.77 734.156H445.77V748.688H447.77H449.77V734.156H447.77ZM447.77 748.688V746.688H408.395V748.688V750.688H447.77V748.688ZM408.395 748.688H406.395V769.312H408.395H410.395V748.688H408.395ZM408.395 769.312V771.312H444.781V769.312V767.312H408.395V769.312ZM444.781 769.312H442.781V783.785H444.781H446.781V769.312H444.781ZM444.781 783.785V781.785H408.395V783.785V785.785H444.781V783.785ZM408.395 783.785H406.395V804.469H408.395H410.395V783.785H408.395ZM408.395 804.469V806.469H447.887V804.469V802.469H408.395V804.469ZM447.887 804.469H445.887V819H447.887H449.887V804.469H447.887ZM447.887 819V817H390.816V819V821H447.887V819ZM390.816 819H392.816V734.156H390.816H388.816V819H390.816Z" fill="black" mask="url(#path-7-outside-1_43_424)"/>
</g>
<defs>
<clipPath id="clip0_43_424">
<rect x="124" y="125" width="775" height="775" rx="150" fill="white"/>
</clipPath>
</defs>
</svg>
