<svg width="800" height="800" viewBox="0 0 800 800" fill="none" xmlns="http://www.w3.org/2000/svg">
<g clip-path="url(#clip0_4_325)">
<rect x="13" y="12" width="775" height="775" rx="150" fill="#152653"/>
<path d="M102.233 109.992H372.761V179.016H185.729V276.984H358.566V345.729H185.729V443.977H373.317V513H102.233V109.992Z" fill="#EC712D"/>
<path d="M102.233 109.992V108.992C101.681 108.992 101.233 109.44 101.233 109.992H102.233ZM372.761 109.992H373.761C373.761 109.44 373.313 108.992 372.761 108.992V109.992ZM372.761 179.016V180.016C373.313 180.016 373.761 179.568 373.761 179.016H372.761ZM185.729 179.016V178.016C185.177 178.016 184.729 178.463 184.729 179.016H185.729ZM185.729 276.984H184.729C184.729 277.537 185.177 277.984 185.729 277.984V276.984ZM358.566 276.984H359.566C359.566 276.432 359.119 275.984 358.566 275.984V276.984ZM358.566 345.729V346.729C359.119 346.729 359.566 346.282 359.566 345.729H358.566ZM185.729 345.729V344.729C185.177 344.729 184.729 345.177 184.729 345.729H185.729ZM185.729 443.977H184.729C184.729 444.529 185.177 444.977 185.729 444.977V443.977ZM373.317 443.977H374.317C374.317 443.424 373.87 442.977 373.317 442.977V443.977ZM373.317 513V514C373.87 514 374.317 513.552 374.317 513H373.317ZM102.233 513H101.233C101.233 513.552 101.681 514 102.233 514V513ZM102.233 109.992V110.992H372.761V109.992V108.992H102.233V109.992ZM372.761 109.992H371.761V179.016H372.761H373.761V109.992H372.761ZM372.761 179.016V178.016H185.729V179.016V180.016H372.761V179.016ZM185.729 179.016H184.729V276.984H185.729H186.729V179.016H185.729ZM185.729 276.984V277.984H358.566V276.984V275.984H185.729V276.984ZM358.566 276.984H357.566V345.729H358.566H359.566V276.984H358.566ZM358.566 345.729V344.729H185.729V345.729V346.729H358.566V345.729ZM185.729 345.729H184.729V443.977H185.729H186.729V345.729H185.729ZM185.729 443.977V444.977H373.317V443.977V442.977H185.729V443.977ZM373.317 443.977H372.317V513H373.317H374.317V443.977H373.317ZM373.317 513V512H102.233V513V514H373.317V513ZM102.233 513H103.233V109.992H102.233H101.233V513H102.233Z" fill="black"/>
<path d="M410.233 218.992H493.729V552.977H667.123V622H410.233V218.992Z" fill="#E2E8F0"/>
<path d="M410.233 218.992V217.992C409.681 217.992 409.233 218.44 409.233 218.992H410.233ZM493.729 218.992H494.729C494.729 218.44 494.282 217.992 493.729 217.992V218.992ZM493.729 552.977H492.729C492.729 553.529 493.177 553.977 493.729 553.977V552.977ZM667.123 552.977H668.123C668.123 552.424 667.675 551.977 667.123 551.977V552.977ZM667.123 622V623C667.675 623 668.123 622.552 668.123 622H667.123ZM410.233 622H409.233C409.233 622.552 409.681 623 410.233 623V622ZM410.233 218.992V219.992H493.729V218.992V217.992H410.233V218.992ZM493.729 218.992H492.729V552.977H493.729H494.729V218.992H493.729ZM493.729 552.977V553.977H667.123V552.977V551.977H493.729V552.977ZM667.123 552.977H666.123V622H667.123H668.123V552.977H667.123ZM667.123 622V621H410.233V622V623H667.123V622ZM410.233 622H411.233V218.992H410.233H409.233V622H410.233Z" fill="black"/>
<path d="M653.5 34C686.841 34 717.262 40.7246 739.533 51.834C761.503 62.7932 777 78.8628 777 98.1113V245.889C777 265.143 761.459 281.211 739.477 292.167C717.189 303.275 686.769 310 653.5 310C620.231 310 589.811 303.275 567.523 292.167C545.541 281.211 530 265.143 530 245.889V98.1113C530 78.8628 545.497 62.7932 567.467 51.834C589.738 40.7246 620.159 34 653.5 34ZM737.375 220.672C713.83 230.567 684.628 236.111 653.5 236.111C622.372 236.111 593.17 230.567 569.625 220.672V245.545C569.688 245.672 569.826 245.921 570.107 246.301C570.755 247.173 571.879 248.348 573.595 249.736C577.011 252.499 582.325 255.745 589.539 258.844C603.93 265.025 625.473 270.444 653.5 270.444C681.527 270.444 703.07 265.025 717.461 258.844C724.675 255.745 729.989 252.499 733.405 249.736C735.121 248.348 736.245 247.173 736.893 246.301C737.174 245.921 737.312 245.672 737.375 245.545V220.672ZM737.375 145.336C715.271 155.841 685.773 162.223 653.5 162.223C621.227 162.223 591.729 155.841 569.625 145.336V176.044C588.057 188.425 619.537 196.556 653.5 196.556C687.463 196.556 718.943 188.425 737.375 176.044V145.336ZM653.5 73.5557C625.473 73.5557 603.93 78.9755 589.539 85.1562C582.325 88.2547 577.011 91.5005 573.595 94.2637C571.879 95.652 570.755 96.8265 570.107 97.6992C569.989 97.8588 569.897 97.9963 569.824 98.1104C569.897 98.2246 569.989 98.3625 570.107 98.5225C570.755 99.3952 571.878 100.571 573.595 101.959C577.011 104.722 582.325 107.967 589.539 111.065C603.93 117.246 625.472 122.667 653.5 122.667C681.528 122.667 703.07 117.246 717.461 111.065C724.675 107.967 729.989 104.722 733.405 101.959C735.122 100.571 736.245 99.3952 736.893 98.5225C737.011 98.3627 737.102 98.2245 737.175 98.1104C737.102 97.9964 737.011 97.8586 736.893 97.6992C736.245 96.8265 735.121 95.652 733.405 94.2637C729.989 91.5005 724.675 88.2547 717.461 85.1562C703.07 78.9755 681.527 73.5557 653.5 73.5557Z" fill="#EC712D" stroke="white" stroke-width="10"/>
</g>
<defs>
<clipPath id="clip0_4_325">
<rect x="13" y="12" width="775" height="775" rx="150" fill="white"/>
</clipPath>
</defs>
</svg>
